<svg width="56" height="49" viewBox="0 0 56 49" fill="none" xmlns="http://www.w3.org/2000/svg">
<g clip-path="url(#clip0_7_21)">
<path d="M53.3411 29.0695L50.6983 26.7504C49.619 25.8032 47.8637 25.8049 46.7843 26.7504L32.5136 39.2745L30.5468 45.6044L30.0656 46.0268C29.7058 46.3425 29.7049 46.8519 30.06 47.17L30.0554 47.1863L30.073 47.1823C30.2529 47.3377 30.4866 47.4166 30.7212 47.4166C30.9586 47.4166 31.1959 47.3369 31.3768 47.1782L31.8589 46.755L39.0713 45.0291L53.342 32.5051C54.4213 31.5571 54.4213 30.0167 53.3411 29.0695ZM34.6547 39.6968L44.1527 31.3618L48.0871 34.8144L38.5891 43.1494L34.6547 39.6968ZM33.8173 41.264L36.8032 43.8842L32.6972 44.8672L33.8173 41.264ZM52.0299 31.3537L49.3974 33.6638L45.463 30.212L48.0955 27.9018C48.4525 27.5886 49.032 27.5894 49.3881 27.901L52.0308 30.2201C52.3869 30.5318 52.3869 31.0412 52.0299 31.3537Z" fill="black"/>
<path d="M10.9758 1.62745H42.5031V24.4118H44.3576V0H10.9758H1.70309V48.8235H10.9758H24.8849V47.1961H10.9758V1.62745ZM3.55764 47.1961V1.62745H9.12128V47.1961H3.55764Z" fill="black"/>
<path d="M37.8667 19.5294V8.13727H15.6122V19.5294H37.8667ZM17.4667 9.76472H36.0122V17.902H17.4667V9.76472Z" fill="black"/>
<path d="M33.2304 11.3922H20.2485V13.0196H33.2304V11.3922Z" fill="black"/>
<path d="M33.2304 14.647H20.2485V16.2745H33.2304V14.647Z" fill="black"/>
</g>
<defs>
<clipPath id="clip0_7_21">
<rect width="55.6364" height="48.8235" fill="white" transform="translate(0.1091)"/>
</clipPath>
</defs>
</svg>
