<svg width="41" height="31" viewBox="0 0 41 31" fill="none" xmlns="http://www.w3.org/2000/svg">
<path d="M30.12 30C29.1813 30 28.328 29.936 27.56 29.808C26.8347 29.68 26.1307 29.424 25.448 29.04C24.808 28.6133 24.1253 27.9733 23.4 27.12L16.04 17.968L1.512 0.559999H15.336L23.272 11.056L36.648 26.416C37.3733 27.2693 37.992 27.9947 38.504 28.592C39.016 29.1893 39.528 29.6587 40.04 30H30.12ZM6.824 30L0.744 29.936C1.46933 29.424 2.19467 28.784 2.92 28.016C3.688 27.2053 4.37067 26.5013 4.968 25.904L17.064 12.784L28.328 0.559999H37.864L22.504 16.944L13.032 27.696C12.3067 28.464 11.496 29.0613 10.6 29.488C9.704 29.872 8.44533 30.0427 6.824 30Z" fill="white"/>
</svg>
