<svg width="54" height="54" viewBox="0 0 54 54" fill="none" xmlns="http://www.w3.org/2000/svg">
<rect x="0.5" y="0.5" width="53" height="53" rx="24.5" fill="#E76B6B" stroke="black"/>
<path d="M16.096 38L25.728 24.72V28.496L16.512 15.6H22.4L28.768 24.592L26.304 24.624L32.576 15.6H38.208L29.056 28.272V24.56L38.752 38H32.768L26.176 28.496H28.544L22.048 38H16.096Z" fill="white"/>
<path d="M16.096 38L15.2865 37.4129L14.1354 39H16.096V38ZM25.728 24.72H26.728V21.6381L24.9185 24.1329L25.728 24.72ZM25.728 28.496L24.9144 29.0774L26.728 31.6152V28.496H25.728ZM16.512 15.6V14.6H14.5683L15.6984 16.1814L16.512 15.6ZM22.4 15.6L23.2161 15.0221L22.9172 14.6H22.4V15.6ZM28.768 24.592L28.781 25.5919L30.684 25.5672L29.5841 24.0141L28.768 24.592ZM26.304 24.624L25.4829 24.0533L24.3737 25.6492L26.317 25.6239L26.304 24.624ZM32.576 15.6V14.6H32.0532L31.7549 15.0293L32.576 15.6ZM38.208 15.6L39.0187 16.1855L40.1638 14.6H38.208V15.6ZM29.056 28.272H28.056V31.3646L29.8667 28.8575L29.056 28.272ZM29.056 24.56L29.867 23.9749L28.056 21.4647V24.56H29.056ZM38.752 38V39H40.7065L39.563 37.4149L38.752 38ZM32.768 38L31.9463 38.5699L32.2446 39H32.768V38ZM26.176 28.496V27.496H24.2654L25.3543 29.0659L26.176 28.496ZM28.544 28.496L29.3696 29.0603L30.4388 27.496H28.544V28.496ZM22.048 38V39H22.5758L22.8736 38.5643L22.048 38ZM16.9055 38.5871L26.5375 25.3071L24.9185 24.1329L15.2865 37.4129L16.9055 38.5871ZM24.728 24.72V28.496H26.728V24.72H24.728ZM26.5416 27.9146L17.3256 15.0186L15.6984 16.1814L24.9144 29.0774L26.5416 27.9146ZM16.512 16.6H22.4V14.6H16.512V16.6ZM21.5839 16.1779L27.9519 25.1699L29.5841 24.0141L23.2161 15.0221L21.5839 16.1779ZM28.755 23.5921L26.291 23.6241L26.317 25.6239L28.781 25.5919L28.755 23.5921ZM27.1251 25.1947L33.3971 16.1707L31.7549 15.0293L25.4829 24.0533L27.1251 25.1947ZM32.576 16.6H38.208V14.6H32.576V16.6ZM37.3973 15.0145L28.2453 27.6865L29.8667 28.8575L39.0187 16.1855L37.3973 15.0145ZM30.056 28.272V24.56H28.056V28.272H30.056ZM28.245 25.1451L37.941 38.5851L39.563 37.4149L29.867 23.9749L28.245 25.1451ZM38.752 37H32.768V39H38.752V37ZM33.5897 37.4301L26.9977 27.9261L25.3543 29.0659L31.9463 38.5699L33.5897 37.4301ZM26.176 29.496H28.544V27.496H26.176V29.496ZM27.7184 27.9317L21.2224 37.4357L22.8736 38.5643L29.3696 29.0603L27.7184 27.9317ZM22.048 37H16.096V39H22.048V37Z" fill="black"/>
</svg>
